<svg width="111" height="111" viewBox="0 0 111 111" fill="none" xmlns="http://www.w3.org/2000/svg">
<g clip-path="url(#clip0_40_18457)">
<path fill-rule="evenodd" clip-rule="evenodd" d="M22.1115 45.4021C28.4898 51.7805 38.8312 51.7805 45.2095 45.4021C51.5879 39.0238 51.5879 28.6824 45.2095 22.3041C38.8312 15.9257 28.4898 15.9257 22.1115 22.3041C15.7331 28.6824 15.7331 39.0238 22.1115 45.4021ZM16.4546 16.6472C6.95205 26.1498 6.95205 41.5564 16.4546 51.059C18.3028 52.9072 20.3743 54.3959 22.5823 55.5252C20.338 56.6603 18.2328 58.1655 16.3575 60.0407C6.85497 69.5433 6.85497 84.9499 16.3575 94.4525C25.8601 103.955 41.2667 103.955 50.7693 94.4525C52.6577 92.5641 54.1708 90.4425 55.3087 88.1805C56.4465 90.4425 57.9597 92.5641 59.8481 94.4525C69.3506 103.955 84.7573 103.955 94.2598 94.4525C103.762 84.95 103.762 69.5433 94.2598 60.0407C92.3578 58.1387 90.2192 56.6174 87.9388 55.4768C90.2558 54.3309 92.4283 52.7934 94.3575 50.8642C103.86 41.3617 103.86 25.955 94.3575 16.4524C84.855 6.94989 69.4483 6.94989 59.9458 16.4524C58.03 18.3682 56.5004 20.524 55.3571 22.823C54.2249 20.597 52.728 18.5088 50.8664 16.6472C41.3638 7.14465 25.9572 7.14465 16.4546 16.6472ZM65.5049 88.7957C71.8833 95.174 82.2246 95.174 88.603 88.7957C94.9813 82.4173 94.9813 72.076 88.603 65.6976C82.2246 59.3192 71.8833 59.3192 65.5049 65.6976C59.1266 72.076 59.1266 82.4173 65.5049 88.7957ZM49.8415 78.5885C49.5369 82.3165 47.9656 85.9425 45.1124 88.7956C38.7341 95.174 28.3927 95.174 22.0144 88.7956C15.636 82.4173 15.636 72.0759 22.0144 65.6976C24.8675 62.8444 28.4935 61.2731 32.2214 60.9685C37.9647 60.4993 46.7049 59.3599 52.9849 53.0799C59.265 46.7999 60.4043 38.0597 60.8736 32.3164C61.1782 28.5884 62.7495 24.9624 65.6026 22.1093C71.981 15.7309 82.3223 15.7309 88.7007 22.1093C95.079 28.4877 95.079 38.829 88.7007 45.2074C85.8475 48.0605 82.2216 49.6318 78.4935 49.9364C72.7503 50.4057 64.0101 51.545 57.7301 57.825C51.4501 64.105 50.3107 72.8452 49.8415 78.5885Z" fill="#5C44F3"/>
</g>
<defs>
<clipPath id="clip0_40_18457">
<rect width="110.309" height="110.033" fill="white" transform="translate(0.251953 0.484375)"/>
</clipPath>
</defs>
</svg>
